<svg xmlns="http://www.w3.org/2000/svg" viewBox="0 0 100 100" preserveAspectRatio="xMidYMid" width="200" height="200" style="shape-rendering: auto; display: block; background: transparent;" xmlns:xlink="http://www.w3.org/1999/xlink"><g><g transform="rotate(0 50 50)">
  <rect fill="#000000" height="4" width="4" ry="5.5" rx="5.5" y="40.5" x="50.5">
    <animate repeatCount="indefinite" begin="-0.37974683544303806s" dur="0.42194092827004226s" keyTimes="0;1" values="1;0" attributeName="opacity"></animate>
  </rect>
</g><g transform="rotate(36 50 50)">
  <rect fill="#000000" height="4" width="4" ry="5.5" rx="5.5" y="40.5" x="50.5">
    <animate repeatCount="indefinite" begin="-0.3375527426160338s" dur="0.42194092827004226s" keyTimes="0;1" values="1;0" attributeName="opacity"></animate>
  </rect>
</g><g transform="rotate(72 50 50)">
  <rect fill="#000000" height="4" width="4" ry="5.5" rx="5.5" y="40.5" x="50.5">
    <animate repeatCount="indefinite" begin="-0.2953586497890296s" dur="0.42194092827004226s" keyTimes="0;1" values="1;0" attributeName="opacity"></animate>
  </rect>
</g><g transform="rotate(108 50 50)">
  <rect fill="#000000" height="4" width="4" ry="5.5" rx="5.5" y="40.5" x="50.5">
    <animate repeatCount="indefinite" begin="-0.2531645569620254s" dur="0.42194092827004226s" keyTimes="0;1" values="1;0" attributeName="opacity"></animate>
  </rect>
</g><g transform="rotate(144 50 50)">
  <rect fill="#000000" height="4" width="4" ry="5.5" rx="5.5" y="40.5" x="50.5">
    <animate repeatCount="indefinite" begin="-0.21097046413502113s" dur="0.42194092827004226s" keyTimes="0;1" values="1;0" attributeName="opacity"></animate>
  </rect>
</g><g transform="rotate(180 50 50)">
  <rect fill="#000000" height="4" width="4" ry="5.5" rx="5.5" y="40.5" x="50.5">
    <animate repeatCount="indefinite" begin="-0.1687763713080169s" dur="0.42194092827004226s" keyTimes="0;1" values="1;0" attributeName="opacity"></animate>
  </rect>
</g><g transform="rotate(216 50 50)">
  <rect fill="#000000" height="4" width="4" ry="5.5" rx="5.5" y="40.5" x="50.5">
    <animate repeatCount="indefinite" begin="-0.1265822784810127s" dur="0.42194092827004226s" keyTimes="0;1" values="1;0" attributeName="opacity"></animate>
  </rect>
</g><g transform="rotate(252 50 50)">
  <rect fill="#000000" height="4" width="4" ry="5.5" rx="5.5" y="40.5" x="50.5">
    <animate repeatCount="indefinite" begin="-0.08438818565400845s" dur="0.42194092827004226s" keyTimes="0;1" values="1;0" attributeName="opacity"></animate>
  </rect>
</g><g transform="rotate(288 50 50)">
  <rect fill="#000000" height="4" width="4" ry="5.5" rx="5.5" y="40.5" x="50.5">
    <animate repeatCount="indefinite" begin="-0.042194092827004225s" dur="0.42194092827004226s" keyTimes="0;1" values="1;0" attributeName="opacity"></animate>
  </rect>
</g><g transform="rotate(324 50 50)">
  <rect fill="#000000" height="4" width="4" ry="5.5" rx="5.5" y="40.5" x="50.5">
    <animate repeatCount="indefinite" begin="0s" dur="0.42194092827004226s" keyTimes="0;1" values="1;0" attributeName="opacity"></animate>
  </rect>
</g><g></g></g><!-- [ldio] generated by https://loading.io --></svg>